<?xml version="1.0" encoding="utf-8"?>
<!-- Generator: Adobe Illustrator 18.1.1, SVG Export Plug-In . SVG Version: 6.00 Build 0)  -->
<svg version="1.1" id="Layer_1" xmlns="http://www.w3.org/2000/svg" xmlns:xlink="http://www.w3.org/1999/xlink" x="0px" y="0px"
	 viewBox="0 0 400 400" enable-background="new 0 0 400 400" xml:space="preserve">
<path fill="#FFFFFF" d="M395.609,77.744v244.512c0,20.209-7.172,37.486-21.52,51.833c-14.352,14.343-31.629,21.52-51.833,21.52
	H77.744c-20.209,0-37.486-7.176-51.829-21.52c-14.352-14.348-21.524-31.624-21.524-51.833V77.744
	c0-20.205,7.172-37.481,21.524-51.833c14.343-14.343,31.62-21.52,51.829-21.52h244.512c20.205,0,37.481,7.176,51.833,21.52
	C388.437,40.263,395.609,57.539,395.609,77.744z M127.411,100.668c-0.169-8.83-3.227-16.131-9.169-21.903
	c-5.946-5.772-13.84-8.66-23.686-8.66c-9.851,0-17.874,2.888-24.069,8.66c-6.2,5.772-9.298,13.073-9.298,21.903
	c0,8.66,3.013,15.917,9.039,21.778c6.026,5.857,13.884,8.785,23.561,8.785h0.254c10.02,0,18.083-2.928,24.198-8.785
	C124.354,116.585,127.411,109.328,127.411,100.668z M64.756,331.937h58.836V155.171H64.756V331.937z M276.413,331.937h58.836
	V230.566c0-26.146-6.2-45.932-18.596-59.348c-12.396-13.412-28.781-20.12-49.155-20.12c-23.098,0-40.842,9.935-53.233,29.801h0.508
	v-25.727h-58.836c0.508,11.21,0.508,70.13,0,176.766h58.836v-98.826c0-6.45,0.593-11.206,1.783-14.263
	c2.545-5.942,6.369-10.992,11.46-15.155c5.095-4.159,11.375-6.24,18.85-6.24c19.697,0,29.547,13.332,29.547,39.991V331.937z"/>
</svg>
