<?xml version="1.0" encoding="utf-8"?>
<!-- Generator: Adobe Illustrator 18.1.1, SVG Export Plug-In . SVG Version: 6.00 Build 0)  -->
<svg version="1.1" id="Layer_1" xmlns="http://www.w3.org/2000/svg" xmlns:xlink="http://www.w3.org/1999/xlink" x="0px" y="0px"
	 viewBox="0 0 400 400" enable-background="new 0 0 400 400" xml:space="preserve">
<path fill="#FFFFFF" d="M395.609,77.744v244.512c0,20.209-7.172,37.486-21.52,51.833c-14.352,14.343-31.629,21.52-51.833,21.52
	H77.744c-20.209,0-37.486-7.176-51.829-21.52c-14.352-14.348-21.524-31.624-21.524-51.833V77.744
	c0-20.205,7.172-37.481,21.524-51.833c14.343-14.343,31.62-21.52,51.829-21.52h244.512c20.205,0,37.481,7.176,51.833,21.52
	C388.437,40.263,395.609,57.539,395.609,77.744z M323.785,134.035c2.714-14.433,0.932-25.638-5.349-33.621
	c-8.83-11.036-24.707-14.856-47.63-11.464c-2.888,0.513-6.365,1.573-10.439,3.187c-4.078,1.614-8.959,4.199-14.647,7.765
	c-5.692,3.566-11.165,7.689-16.429,12.356c-5.264,4.671-10.314,10.613-15.155,17.829c-4.841,7.216-8.62,14.985-11.335,23.303
	c13.586-1.186,23.218,0.174,28.91,4.078c5.687,3.905,7.934,12.311,6.748,25.215c-0.851,8.83-5.264,20.971-13.243,36.42
	c-7.305,13.247-13.332,21.649-18.083,25.215c-7.475,5.438-14.86,4.248-22.161-3.566c-3.905-4.074-7.091-9.547-9.552-16.425
	s-4.074-13.073-4.836-18.596c-0.767-5.514-1.618-12.645-2.55-21.395c-0.936-8.741-1.654-14.811-2.162-18.208
	c-3.909-21.907-6.797-35.827-8.66-41.773c-2.037-6.28-5.055-12.137-9.044-17.575c-3.989-5.429-8.277-8.825-12.864-10.185
	c-9.677-2.714-20.463-0.593-32.346,6.365c-9.169,5.438-20.757,14.437-34.767,26.998c-14.009,12.569-24.408,21.23-31.201,25.981
	v1.783c2.714,1.359,4.881,3.566,6.494,6.623c1.614,3.053,3.441,4.756,5.478,5.09c3.566,0.513,8.192-0.209,13.88-2.162
	c5.687-1.952,10.613-2.844,14.776-2.674c4.159,0.169,7.68,2.719,10.568,7.64c1.868,3.058,3.437,6.329,4.711,9.806
	c1.275,3.481,2.55,7.56,3.82,12.226c1.275,4.671,2.336,8.108,3.187,10.314c2.884,7.814,7.386,23.686,13.497,47.63
	c6.115,24.791,10.951,41.515,14.517,50.175c7.132,16.808,15.877,27.426,26.235,31.838c7.301,2.037,14.517,2.166,21.649,0.383
	c7.132-1.783,13.581-4.457,19.358-8.023c22.242-13.073,43.467-33.198,63.676-60.365c17.655-23.601,32.302-48.433,43.935-74.503
	C314.402,165.659,321.405,146.43,323.785,134.035z"/>
</svg>
