<?xml version="1.0" encoding="utf-8"?>
<!-- Generator: Adobe Illustrator 18.1.1, SVG Export Plug-In . SVG Version: 6.00 Build 0)  -->
<svg version="1.1" id="Layer_1" xmlns="http://www.w3.org/2000/svg" xmlns:xlink="http://www.w3.org/1999/xlink" x="0px" y="0px"
	 viewBox="0 0 400 400" enable-background="new 0 0 400 400" xml:space="preserve">
<path fill="#FFFFFF" d="M259.08,202.534c0,3.798-1.508,6.535-4.58,8.321l-78.921,49.264c-1.454,1.062-3.184,1.564-5.251,1.564
	c-1.508,0-2.875-0.39-4.495-1.229c-3.408-1.844-4.832-4.747-4.832-8.658v-98.582c0-3.911,1.424-6.758,4.832-8.602
	c3.462-1.9,6.688-1.788,9.872,0.28l78.858,49.318C257.635,195.942,259.08,198.734,259.08,202.534z M396,80.268v244.53
	c0,20.164-7.104,36.383-21.459,50.737C360.187,389.889,342.972,396,322.753,396H78.223c-20.163,0-37.922-6.111-52.275-20.465
	C11.593,361.181,4,344.962,4,324.798V80.268c0-20.22,7.593-38.973,21.948-53.326C40.302,12.587,58.061,4,78.223,4h244.53
	c20.219,0,37.434,8.587,51.788,22.942C388.896,41.295,396,60.048,396,80.268z M338.001,202.534c0-9.886-0.056-17.595-0.168-23.124
	s-0.558-12.567-1.34-21.057c-0.725-8.434-1.842-16.031-3.296-22.677c-1.619-7.54-5.194-13.852-10.724-18.99
	c-5.474-5.138-11.896-8.099-19.158-8.937c-22.789-2.569-57.251-3.854-103.386-3.854s-80.597,1.285-103.386,3.854
	c-7.317,0.839-13.684,3.799-19.102,8.937s-8.993,11.45-10.613,18.99c-1.563,6.646-2.737,14.243-3.462,22.677
	c-0.783,8.49-1.229,15.528-1.34,21.057c-0.112,5.53-0.168,13.238-0.168,23.124c0,9.829,0.056,17.538,0.168,23.067
	c0.112,5.585,0.558,12.567,1.34,21.057c0.725,8.49,1.842,16.031,3.296,22.732c1.619,7.485,5.194,13.797,10.724,18.935
	c5.474,5.138,11.84,8.099,19.158,8.937c22.789,2.569,57.251,3.854,103.386,3.854s80.597-1.285,103.386-3.854
	c7.261-0.839,13.684-3.799,19.102-8.937s8.993-11.45,10.613-18.935c1.563-6.701,2.737-14.242,3.462-22.732
	c0.783-8.49,1.229-15.472,1.34-21.057C337.945,220.071,338.001,212.363,338.001,202.534z"/>
</svg>
